<svg xmlns="http://www.w3.org/2000/svg" xmlns:xlink="http://www.w3.org/1999/xlink" xmlns:inkscape="http://www.inkscape.org/namespaces/inkscape" version="1.1" width="223" height="120" viewBox="0 0 223 120">
<defs>
<path id="font_1_6" d="M.33399964 .30233766C.33999635 .32835389 .36299134 .42037965 .43299867 .42037965 .43798829 .42037965 .46199037 .42037965 .48298646 .40734864 .45498658 .402359 .43499757 .37734986 .43499757 .35334779 .43499757 .33735658 .44599916 .31835938 .47299195 .31835938 .49499513 .31835938 .5269928 .3363495 .5269928 .37635804 .5269928 .42837525 .46798707 .4423828 .43399049 .4423828 .37599183 .4423828 .34098817 .38935853 .32899476 .36634828 .3039856 .43237306 .25 .4423828 .22099304 .4423828 .116989139 .4423828 .05999756 .3133545 .05999756 .28834535 .05999756 .27833558 .069992069 .27833558 .07199097 .27833558 .07998657 .27833558 .08299255 .28033448 .084991458 .28933717 .11898804 .39535523 .18499756 .42037965 .21899414 .42037965 .23799134 .42037965 .272995 .4113617 .272995 .35334779 .272995 .32235719 .2559967 .25532533 .21899414 .11528015 .20298767 .053268434 .16799927 .011245728 .12399292 .011245728 .117996219 .011245728 .09498596 .011245728 .07398987 .024276734 .09899902 .029266358 .12098694 .05027771 .12098694 .07827759 .12098694 .105270389 .09899902 .11328125 .083999637 .11328125 .053985597 .11328125 .0289917 .08728027 .0289917 .055267335 .0289917 .009246826 .07899475-.0107421879 .12298584-.0107421879 .18899536-.0107421879 .22499085 .059280397 .22799683 .0652771 .23999024 .028274537 .27598573-.0107421879 .33599855-.0107421879 .43899537-.0107421879 .49598695 .118270877 .49598695 .14328003 .49598695 .1532898 .4869995 .1532898 .48399354 .1532898 .47499085 .1532898 .47299195 .14929199 .47099305 .14228821 .43798829 .03527832 .36999513 .011245728 .33799745 .011245728 .29899598 .011245728 .2829895 .043273927 .2829895 .07727051 .2829895 .09927368 .2889862 .121276859 .2999878 .16529846L.33399964 .30233766Z"/>
<path id="font_1_7" d="M.48599244 .38136292C.48999024 .39537049 .48999024 .39736939 .48999024 .40437318 .48999024 .42237855 .47599793 .43138124 .46099855 .43138124 .45098878 .43138124 .43499757 .42536927 .42599488 .41036988 .42399598 .405365 .41600038 .37435914 .4119873 .35635377 .40499879 .33035279 .397995 .30334474 .3919983 .27633668L.34700013 .09628296C.34298707 .08126831 .2999878 .011245728 .23399353 .011245728 .18299866 .011245728 .17199707 .055267335 .17199707 .0922699 .17199707 .1382904 .18899536 .20030213 .22299195 .28833009 .23899842 .3293457 .24299622 .3403473 .24299622 .36035157 .24299622 .405365 .21099854 .4423828 .16099549 .4423828 .06599426 .4423828 .0289917 .29733277 .0289917 .28833009 .0289917 .27833558 .038986207 .27833558 .040985109 .27833558 .050994874 .27833558 .051986696 .28033448 .056991579 .29634095 .083999637 .3903656 .12399292 .42037965 .1579895 .42037965 .1659851 .42037965 .18299866 .42037965 .18299866 .3883667 .18299866 .36335755 .17298889 .3373413 .1659851 .31834413 .12599182 .21231079 .10798645 .1552887 .10798645 .10827637 .10798645 .019256592 .17098999-.0107421879 .22999573-.0107421879 .2689972-.0107421879 .30299378 .0062561037 .33099366 .03425598 .31799317-.017745972 .30599977-.06674194 .2659912-.11973572 .23999024-.15385437 .20199585-.18309021 .1559906-.18309021 .14199829-.18309021 .09700012-.18005371 .07998657-.14074707 .09599304-.14074707 .10899353-.14074707 .12298584-.1287384 .1329956-.11973572 .14299011-.10673523 .14299011-.08773804 .14299011-.056747438 .115997318-.052734376 .10598755-.052734376 .08299255-.052734376 .049987794-.068740848 .049987794-.11773682 .049987794-.16796875 .09399414-.20507813 .1559906-.20507813 .25898744-.20507813 .3619995-.11373901 .3899994-.00074768069L.48599244 .38136292Z"/>
<path id="font_1_1" d="M.37298585 .37835694C.35499574 .41537477 .32598878 .4423828 .2809906 .4423828 .1639862 .4423828 .039993287 .29533387 .039993287 .14929199 .039993287 .055267335 .09498596-.0107421879 .17298889-.0107421879 .19299317-.0107421879 .24299622-.0067443849 .30299378 .06427002 .31098939 .022247315 .34599305-.0107421879 .3939972-.0107421879 .42900086-.0107421879 .45199586 .012252808 .46798707 .044265748 .4850006 .08027649 .49798585 .14129639 .49798585 .14329529 .49798585 .1532898 .4889984 .1532898 .48599244 .1532898 .47599793 .1532898 .47499085 .14929199 .47200013 .13528443 .45498658 .07026672 .43699647 .011245728 .3959961 .011245728 .36898805 .011245728 .3659973 .037261964 .3659973 .057266237 .3659973 .07926941 .36799623 .08728027 .3789978 .13128662 .3899994 .17329407 .3919983 .18330384 .40098573 .22131348L.43699647 .36135865C.44400025 .38935853 .44400025 .39135743 .44400025 .39537049 .44400025 .41236878 .43199159 .42237855 .4149933 .42237855 .3909912 .42237855 .37599183 .4003601 .37298585 .37835694M.30799867 .119277957C.30299378 .10127258 .30299378 .09927368 .28799439 .08227539 .24398804 .027252198 .20298767 .011245728 .1749878 .011245728 .125 .011245728 .11099243 .06626892 .11099243 .105285648 .11099243 .1552887 .14299011 .27833558 .1659851 .32434083 .19699097 .38336183 .24198914 .42037965 .28199769 .42037965 .34700013 .42037965 .36099244 .3383484 .36099244 .33235169 .36099244 .32633973 .35899354 .32034303 .35798646 .31533814L.30799867 .119277957Z"/>
<path id="font_1_2" d="M.23899842 .68333438C.23899842 .6843262 .23899842 .69433596 .22599793 .69433596 .20298767 .69433596 .12998963 .6863251 .10398865 .6843262 .09599304 .68333438 .084991458 .6823273 .084991458 .6643219 .084991458 .6523285 .09399414 .6523285 .10899353 .6523285 .15699768 .6523285 .15899658 .6453247 .15899658 .6353302 .15899658 .6283264 .1499939 .5943451 .14498902 .573349L.06298828 .24731446C.050994874 .1973114 .04699707 .18130493 .04699707 .14628601 .04699707 .05126953 .099990848-.0107421879 .17399597-.0107421879 .2919922-.0107421879 .4149933 .1382904 .4149933 .28233338 .4149933 .37335206 .3619995 .4423828 .28199769 .4423828 .23599243 .4423828 .19499207 .41337586 .16499329 .38235475L.23899842 .68333438M.14498902 .30534364C.15098572 .3273468 .15098572 .3293457 .1599884 .3403473 .20899964 .405365 .2539978 .42037965 .27999879 .42037965 .31599427 .42037965 .34298707 .3903656 .34298707 .32633973 .34298707 .26733399 .30999757 .15229798 .2919922 .11428833 .25898744 .04725647 .21299744 .011245728 .17399597 .011245728 .13999939 .011245728 .10699463 .038253786 .10699463 .11227417 .10699463 .13128662 .10699463 .15029907 .12298584 .21331787L.14498902 .30534364Z"/>
<path id="font_1_4" d="M.36698915 .3996582H.45298768C.47299195 .3996582 .48298646 .3996582 .48298646 .41966249 .48298646 .43066407 .47299195 .43066407 .45599366 .43066407H.37298585L.3939972 .5449524C.397995 .5660095 .4119873 .6370239 .41799928 .6490326 .4269867 .66804507 .44400025 .68307498 .46499635 .68307498 .46899415 .68307498 .49499513 .68307498 .5139923 .66503909 .46998597 .661026 .45999146 .6260376 .45999146 .6110382 .45999146 .58802798 .47799684 .57603457 .49699403 .57603457 .522995 .57603457 .5519867 .5980377 .5519867 .6360321 .5519867 .6820679 .5059967 .7050781 .46499635 .7050781 .43099977 .7050781 .36799623 .68707278 .33799745 .58802798 .33198548 .56700137 .32899476 .5569763 .30499269 .43066407H.23599243C.21699524 .43066407 .20599365 .43066407 .20599365 .4116516 .20599365 .3996582 .21499634 .3996582 .23399353 .3996582H.2999878L.22499085 .0048828127C.20698548-.09207153 .18998719-.18309021 .13798523-.18309021 .13398743-.18309021 .10899353-.18309021 .08999634-.16506958 .13598633-.1620636 .14498902-.12606812 .14498902-.111068729 .14498902-.08807373 .1269989-.07606506 .10798645-.07606506 .08198547-.07606506 .052993776-.09806824 .052993776-.13606262 .052993776-.18109131 .09700012-.20507813 .13798523-.20507813 .19299317-.20507813 .23298645-.14607239 .25099183-.108062747 .2829895-.04508972 .30599977 .07583618 .30699159 .082839969L.36698915 .3996582Z"/>
<path id="font_2_1" d="M.33099366-.2400055C.33099366-.23701477 .33099366-.23500061 .31399537-.21800232 .18899536-.0920105 .15699768 .09700012 .15699768 .25 .15699768 .42399598 .19499207 .59799197 .31799317 .72299197 .33099366 .73498538 .33099366 .7369995 .33099366 .73999026 .33099366 .746994 .32699586 .75 .32099916 .75 .31098939 .75 .22099304 .6819916 .1619873 .5549927 .11099243 .44499208 .09899902 .33399964 .09899902 .25 .09899902 .17199707 .10998535 .050994874 .16499329-.06201172 .22499085-.18501282 .31098939-.25 .32099916-.25 .32699586-.25 .33099366-.24700928 .33099366-.2400055Z"/>
<path id="font_2_2" d="M.2889862 .25C.2889862 .32798768 .27799989 .44898988 .22299195 .56199648 .16299439 .68499758 .07699585 .75 .066986087 .75 .06098938 .75 .056991579 .74598696 .056991579 .73999026 .056991579 .7369995 .056991579 .73498538 .07598877 .71699526 .17399597 .6179962 .23098755 .45899964 .23098755 .25 .23098755 .07899475 .19400025-.09700012 .069992069-.2230072 .056991579-.23500061 .056991579-.23701477 .056991579-.2400055 .056991579-.2460022 .06098938-.25 .066986087-.25 .07699585-.25 .16699219-.18200684 .22599793-.055007936 .2769928 .054992677 .2889862 .16600037 .2889862 .25Z"/>
<path id="font_2_3" d="M.68699648 .32714845C.70199587 .32714845 .72099307 .32714845 .72099307 .34713746 .72099307 .36714173 .70199587 .36714173 .6879883 .36714173H.08898926C.07499695 .36714173 .055999757 .36714173 .055999757 .34713746 .055999757 .32714845 .07499695 .32714845 .08999634 .32714845H.68699648M.6879883 .13284302C.70199587 .13284302 .72099307 .13284302 .72099307 .15284729 .72099307 .17285156 .70199587 .17285156 .68699648 .17285156H.08999634C.07499695 .17285156 .055999757 .17285156 .055999757 .15284729 .055999757 .13284302 .07499695 .13284302 .08898926 .13284302H.6879883Z"/>
<path id="font_1_5" d="M.08799744 .059265138C.084991458 .044265748 .07899475 .021255494 .07899475 .01625061 .07899475-.0017547608 .09298706-.0107421879 .10798645-.0107421879 .11999512-.0107421879 .13798523-.002746582 .14498902 .01725769 .14698792 .021255494 .18099976 .15730286 .18499756 .17530823 .19299317 .20831299 .21099854 .27833558 .21699524 .30534364 .22099304 .31835938 .24899292 .36535646 .272995 .38734437 .2809906 .39434815 .30999757 .42037965 .35299684 .42037965 .3789978 .42037965 .3939972 .4083557 .394989 .4083557 .36499024 .40335084 .34298707 .37934876 .34298707 .35334779 .34298707 .33735658 .35398866 .31835938 .3809967 .31835938 .4079895 .31835938 .43598939 .34135438 .43598939 .37734986 .43598939 .41235353 .4039917 .4423828 .35299684 .4423828 .28799439 .4423828 .24398804 .39335633 .22499085 .36535646 .21699524 .4103546 .18099976 .4423828 .13398743 .4423828 .08799744 .4423828 .068984989 .40335084 .05999756 .38534547 .041992189 .35134889 .0289917 .29133607 .0289917 .28834535 .0289917 .27833558 .038986207 .27833558 .040985109 .27833558 .050994874 .27833558 .051986696 .27934266 .057998659 .30134584 .07499695 .37234498 .09498596 .42037965 .1309967 .42037965 .147995 .42037965 .1619873 .41235353 .1619873 .37435914 .1619873 .35334779 .15899658 .3423462 .1459961 .29034425L.08799744 .059265138Z"/>
<path id="font_1_3" d="M.3959961 .37998963C.37998963 .37998963 .3659973 .37998963 .35198976 .36598207 .33599855 .35098268 .33399964 .33398438 .33399964 .3269806 .33399964 .30297853 .35198976 .2919922 .37098695 .2919922 .3999939 .2919922 .4269867 .315979 .4269867 .35598756 .4269867 .40522767 .37998963 .4423828 .30899049 .4423828 .17399597 .4423828 .040985109 .2989807 .040985109 .15811157 .040985109 .06819153 .09899902-.0107421879 .20298767-.0107421879 .34599305-.0107421879 .42999269 .09516907 .42999269 .107162479 .42999269 .11315918 .42399598 .120147708 .41799928 .120147708 .41299439 .120147708 .41099549 .1181488 .40499879 .1101532 .32598878 .011245728 .21699524 .011245728 .20498657 .011245728 .14199829 .011245728 .114990238 .06021118 .114990238 .120147708 .114990238 .1611023 .1349945 .25801087 .16899109 .31999208 .19999695 .37698365 .25498963 .42037965 .30999757 .42037965 .34399415 .42037965 .38198854 .40724183 .3959961 .37998963Z"/>
</defs>
<path transform="matrix(1.00005,0,0,-1.00002,23.703438,107.082889)" stroke-width=".3985" stroke-linecap="round" stroke-linejoin="round" fill="none" stroke="#000000" d="M-5.66927 0H173.7576"/>
<path transform="matrix(1.00005,0,0,-1.00002,197.46973,107.082889)" d="M1.99252 0-1.19551 1.59401 0 0-1.19551-1.59401"/>
<use data-text="x" xlink:href="#font_1_6" transform="matrix(9.963098,0,0,-9.962799,202.98239,114.892047)"/>
<path transform="matrix(1.00005,0,0,-1.00002,23.703438,107.082889)" stroke-width=".3985" stroke-linecap="round" stroke-linejoin="round" fill="none" stroke="#000000" d="M0-5.66927V100.05615"/>
<path transform="matrix(0,-1.00002,-1.00005,-0,23.703438,7.024727)" d="M1.99252 0-1.19551 1.59401 0 0-1.19551-1.59401"/>
<use data-text="y" xlink:href="#font_1_7" transform="matrix(9.963098,0,0,-9.962799,14.941002,6.207863)"/>
<path transform="matrix(1.00005,0,0,-1.00002,23.703438,107.082889)" stroke-width="1.19553" stroke-linecap="round" stroke-linejoin="round" fill="none" stroke="#0000ff" d="M14.17339 22.67752C14.17339 22.67752 30.08302 38.27551 34.01608 45.35506 37.94913 52.43459 39.37373 71.73534 42.5202 73.70186 45.66666 75.66838 53.15387 65.03479 56.69362 59.52846 60.23335 54.02214 63.3125 35.19601 68.03217 34.01608 72.75183 32.83615 85.20337 47.09126 90.7097 51.02432 96.21602 54.95738 103.78488 58.82315 107.71794 62.36288 111.651 65.90262 112.37032 76.92955 119.0565 76.53629 125.7427 76.14302 155.90744 59.52846 155.90744 59.52846"/>
<path transform="matrix(1.00005,0,0,-1.00002,23.703438,107.082889)" stroke-width=".3985" stroke-linecap="round" stroke-dasharray="2.98883,2.98883" stroke-linejoin="round" fill="none" stroke="#000000" d="M14.17339 0V22.67752"/>
<path transform="matrix(1.00005,0,0,-1.00002,23.703438,107.082889)" stroke-width=".3985" stroke-linecap="round" stroke-dasharray="2.98883,2.98883" stroke-linejoin="round" fill="none" stroke="#000000" d="M155.90744 0V59.52846"/>
<path transform="matrix(1.00005,0,0,-1.00002,23.703438,107.082889)" d="M15.76744 22.67752C15.76744 23.55789 15.05377 24.27156 14.17339 24.27156 13.29301 24.27156 12.57935 23.55789 12.57935 22.67752 12.57935 21.79713 13.29301 21.08347 14.17339 21.08347 15.05377 21.08347 15.76744 21.79713 15.76744 22.67752ZM14.17339 22.67752" fill="#0000ff"/>
<path transform="matrix(1.00005,0,0,-1.00002,23.703438,107.082889)" stroke-width=".3985" stroke-linecap="round" stroke-linejoin="round" fill="none" stroke="#0000ff" d="M15.76744 22.67752C15.76744 23.55789 15.05377 24.27156 14.17339 24.27156 13.29301 24.27156 12.57935 23.55789 12.57935 22.67752 12.57935 21.79713 13.29301 21.08347 14.17339 21.08347 15.05377 21.08347 15.76744 21.79713 15.76744 22.67752ZM14.17339 22.67752"/>
<path transform="matrix(1.00005,0,0,-1.00002,23.703438,107.082889)" d="M157.5015 59.52846C157.5015 60.40884 156.78781 61.12251 155.90744 61.12251 155.02707 61.12251 154.31339 60.40884 154.31339 59.52846 154.31339 58.64809 155.02707 57.93442 155.90744 57.93442 156.78781 57.93442 157.5015 58.64809 157.5015 59.52846ZM155.90744 59.52846" fill="#0000ff"/>
<path transform="matrix(1.00005,0,0,-1.00002,23.703438,107.082889)" stroke-width=".3985" stroke-linecap="round" stroke-linejoin="round" fill="none" stroke="#0000ff" d="M157.5015 59.52846C157.5015 60.40884 156.78781 61.12251 155.90744 61.12251 155.02707 61.12251 154.31339 60.40884 154.31339 59.52846 154.31339 58.64809 155.02707 57.93442 155.90744 57.93442 156.78781 57.93442 157.5015 58.64809 157.5015 59.52846ZM155.90744 59.52846"/>
<use data-text="a" xlink:href="#font_1_1" transform="matrix(9.963098,0,0,-9.962799,35.24401,114.892047)"/>
<use data-text="b" xlink:href="#font_1_2" transform="matrix(9.963098,0,0,-9.962799,177.48111,117.521099)"/>
<use data-text="f" xlink:href="#font_1_4" transform="matrix(9.963098,0,0,-9.962799,1.2173157,86.89548)"/>
<use data-text="(" xlink:href="#font_2_1" transform="matrix(9.963098,0,0,-9.962799,7.16761,86.89548)"/>
<use data-text="a" xlink:href="#font_1_1" transform="matrix(9.963098,0,0,-9.962799,11.041801,86.89548)"/>
<use data-text=")" xlink:href="#font_2_2" transform="matrix(9.963098,0,0,-9.962799,16.30806,86.89548)"/>
<use data-text="f" xlink:href="#font_1_4" transform="matrix(9.963098,0,0,-9.962799,2.2083665,50.043748)"/>
<use data-text="(" xlink:href="#font_2_1" transform="matrix(9.963098,0,0,-9.962799,8.158661,50.043748)"/>
<use data-text="b" xlink:href="#font_1_2" transform="matrix(9.963098,0,0,-9.962799,12.032852,50.043748)"/>
<use data-text=")" xlink:href="#font_2_2" transform="matrix(9.963098,0,0,-9.962799,16.309067,50.043748)"/>
<path transform="matrix(1.00005,0,0,-1.00002,23.703438,107.082889)" stroke-width=".3985" stroke-linecap="round" stroke-dasharray=".3985,1.99255" stroke-linejoin="round" fill="none" stroke="#000000" d="M0 22.67752H14.17339"/>
<path transform="matrix(1.00005,0,0,-1.00002,23.703438,107.082889)" stroke-width=".3985" stroke-linecap="round" stroke-dasharray=".3985,1.99255" stroke-linejoin="round" fill="none" stroke="#000000" d="M0 59.52846H155.90744"/>
<path transform="matrix(1.00005,0,0,-1.00002,23.703438,107.082889)" stroke-width=".79701" stroke-linecap="round" stroke-linejoin="round" fill="none" stroke="#ff0000" d="M-1.4174 51.02432H171.49828"/>
<use data-text="y" xlink:href="#font_1_7" transform="matrix(9.963098,0,0,-9.962799,198.7302,57.233888)" fill="#ff0000"/>
<use data-text="=" xlink:href="#font_2_3" transform="matrix(9.963098,0,0,-9.962799,206.7396,57.233888)" fill="#ff0000"/>
<use data-text="r" xlink:href="#font_1_5" transform="matrix(9.963098,0,0,-9.962799,217.2561,57.233888)" fill="#ff0000"/>
<path transform="matrix(1.00005,0,0,-1.00002,23.703438,107.082889)" stroke-width=".3985" stroke-linecap="round" stroke-dasharray="2.98883,2.98883" stroke-linejoin="round" fill="none" stroke="#000000" d="M90.7097 0V51.02432"/>
<path transform="matrix(1.00005,0,0,-1.00002,23.703438,107.082889)" d="M92.70226 51.02432C92.70226 52.1248 91.81017 53.01688 90.7097 53.01688 89.60922 53.01688 88.71715 52.1248 88.71715 51.02432 88.71715 49.92386 89.60922 49.03177 90.7097 49.03177 91.81017 49.03177 92.70226 49.92386 92.70226 51.02432ZM90.7097 51.02432" fill="#ff0000"/>
<path transform="matrix(1.00005,0,0,-1.00002,23.703438,107.082889)" stroke-width=".3985" stroke-linecap="round" stroke-linejoin="round" fill="none" stroke="#ff0000" d="M92.70226 51.02432C92.70226 52.1248 91.81017 53.01688 90.7097 53.01688 89.60922 53.01688 88.71715 52.1248 88.71715 51.02432 88.71715 49.92386 89.60922 49.03177 90.7097 49.03177 91.81017 49.03177 92.70226 49.92386 92.70226 51.02432ZM90.7097 51.02432"/>
<use data-text="c" xlink:href="#font_1_3" transform="matrix(9.963098,0,0,-9.962799,112.26186,114.892047)"/>
<use data-text="f" xlink:href="#font_1_4" transform="matrix(9.963098,0,0,-9.962799,117.93815,50.046747)" fill="#ff0000"/>
<use data-text="(" xlink:href="#font_2_1" transform="matrix(9.963098,0,0,-9.962799,123.88844,50.046747)" fill="#ff0000"/>
<use data-text="c" xlink:href="#font_1_3" transform="matrix(9.963098,0,0,-9.962799,127.762638,50.046747)" fill="#ff0000"/>
<use data-text=")" xlink:href="#font_2_2" transform="matrix(9.963098,0,0,-9.962799,132.07386,50.046747)" fill="#ff0000"/>
<use data-text="=" xlink:href="#font_2_3" transform="matrix(9.963098,0,0,-9.962799,138.69931,50.046747)" fill="#ff0000"/>
<use data-text="r" xlink:href="#font_1_5" transform="matrix(9.963098,0,0,-9.962799,149.2327,50.046747)" fill="#ff0000"/>
<path transform="matrix(1.00005,0,0,-1.00002,23.703438,107.082889)" stroke-width=".79701" stroke-linecap="round" stroke-linejoin="round" fill="none" stroke="#000000" d="M14.17339-2.26778H155.90744"/>
<path transform="matrix(1.00005,0,0,-1.00002,23.703438,107.082889)" stroke-width=".79701" stroke-linecap="round" stroke-linejoin="round" fill="none" stroke="#000000" d="M14.17339-2.26778V-5.1022"/>
<path transform="matrix(1.00005,0,0,-1.00002,23.703438,107.082889)" stroke-width=".79701" stroke-linecap="round" stroke-linejoin="round" fill="none" stroke="#000000" d="M155.90744-2.26778V-5.1022"/>
</svg>
