<svg xmlns="http://www.w3.org/2000/svg" xmlns:xlink="http://www.w3.org/1999/xlink" xmlns:inkscape="http://www.inkscape.org/namespaces/inkscape" version="1.1" width="187" height="146" viewBox="0 0 187 146">
<defs>
<path id="font_1_1" d="M.33399964 .30233766C.33999635 .32835389 .36299134 .42037965 .43299867 .42037965 .43798829 .42037965 .46199037 .42037965 .48298646 .40734864 .45498658 .402359 .43499757 .37734986 .43499757 .35334779 .43499757 .33735658 .44599916 .31835938 .47299195 .31835938 .49499513 .31835938 .5269928 .3363495 .5269928 .37635804 .5269928 .42837525 .46798707 .4423828 .43399049 .4423828 .37599183 .4423828 .34098817 .38935853 .32899476 .36634828 .3039856 .43237306 .25 .4423828 .22099304 .4423828 .116989139 .4423828 .05999756 .3133545 .05999756 .28834535 .05999756 .27833558 .069992069 .27833558 .07199097 .27833558 .07998657 .27833558 .08299255 .28033448 .084991458 .28933717 .11898804 .39535523 .18499756 .42037965 .21899414 .42037965 .23799134 .42037965 .272995 .4113617 .272995 .35334779 .272995 .32235719 .2559967 .25532533 .21899414 .11528015 .20298767 .053268434 .16799927 .011245728 .12399292 .011245728 .117996219 .011245728 .09498596 .011245728 .07398987 .024276734 .09899902 .029266358 .12098694 .05027771 .12098694 .07827759 .12098694 .105270389 .09899902 .11328125 .083999637 .11328125 .053985597 .11328125 .0289917 .08728027 .0289917 .055267335 .0289917 .009246826 .07899475-.0107421879 .12298584-.0107421879 .18899536-.0107421879 .22499085 .059280397 .22799683 .0652771 .23999024 .028274537 .27598573-.0107421879 .33599855-.0107421879 .43899537-.0107421879 .49598695 .118270877 .49598695 .14328003 .49598695 .1532898 .4869995 .1532898 .48399354 .1532898 .47499085 .1532898 .47299195 .14929199 .47099305 .14228821 .43798829 .03527832 .36999513 .011245728 .33799745 .011245728 .29899598 .011245728 .2829895 .043273927 .2829895 .07727051 .2829895 .09927368 .2889862 .121276859 .2999878 .16529846L.33399964 .30233766Z"/>
<path id="font_1_2" d="M.48599244 .38136292C.48999024 .39537049 .48999024 .39736939 .48999024 .40437318 .48999024 .42237855 .47599793 .43138124 .46099855 .43138124 .45098878 .43138124 .43499757 .42536927 .42599488 .41036988 .42399598 .405365 .41600038 .37435914 .4119873 .35635377 .40499879 .33035279 .397995 .30334474 .3919983 .27633668L.34700013 .09628296C.34298707 .08126831 .2999878 .011245728 .23399353 .011245728 .18299866 .011245728 .17199707 .055267335 .17199707 .0922699 .17199707 .1382904 .18899536 .20030213 .22299195 .28833009 .23899842 .3293457 .24299622 .3403473 .24299622 .36035157 .24299622 .405365 .21099854 .4423828 .16099549 .4423828 .06599426 .4423828 .0289917 .29733277 .0289917 .28833009 .0289917 .27833558 .038986207 .27833558 .040985109 .27833558 .050994874 .27833558 .051986696 .28033448 .056991579 .29634095 .083999637 .3903656 .12399292 .42037965 .1579895 .42037965 .1659851 .42037965 .18299866 .42037965 .18299866 .3883667 .18299866 .36335755 .17298889 .3373413 .1659851 .31834413 .12599182 .21231079 .10798645 .1552887 .10798645 .10827637 .10798645 .019256592 .17098999-.0107421879 .22999573-.0107421879 .2689972-.0107421879 .30299378 .0062561037 .33099366 .03425598 .31799317-.017745972 .30599977-.06674194 .2659912-.11973572 .23999024-.15385437 .20199585-.18309021 .1559906-.18309021 .14199829-.18309021 .09700012-.18005371 .07998657-.14074707 .09599304-.14074707 .10899353-.14074707 .12298584-.1287384 .1329956-.11973572 .14299011-.10673523 .14299011-.08773804 .14299011-.056747438 .115997318-.052734376 .10598755-.052734376 .08299255-.052734376 .049987794-.068740848 .049987794-.11773682 .049987794-.16796875 .09399414-.20507813 .1559906-.20507813 .25898744-.20507813 .3619995-.11373901 .3899994-.00074768069L.48599244 .38136292Z"/>
<path id="font_2_1" d="M.2939911 .64004519C.2939911 .66400149 .2939911 .6660156 .2709961 .6660156 .20899964 .60227969 .12098694 .60227969 .08898926 .60227969V.57128909C.10899353 .57128909 .16799927 .57128909 .21998596 .5972748V.07902527C.21998596 .042999269 .21699524 .0309906 .1269989 .0309906H.09498596V0C.12998963 .0029907227 .21699524 .0029907227 .25698854 .0029907227 .29699708 .0029907227 .38398744 .0029907227 .4189911 0V.0309906H.3869934C.29699708 .0309906 .2939911 .041992189 .2939911 .07902527V.64004519Z"/>
</defs>
<path transform="matrix(1,0,0,-1.00008,57.789,102.38315)" stroke-width=".3985" stroke-linecap="butt" stroke-miterlimit="10" stroke-linejoin="miter" fill="none" stroke="#0000ff" d="M-56.69362 0H118.59822"/>
<path transform="matrix(1,0,0,-1.00008,176.38722,102.38315)" stroke-width=".31879" stroke-linecap="round" stroke-linejoin="round" fill="none" stroke="#0000ff" d="M-1.19551 1.59401C-1.09587 .99626 0 .09961 .29886 0 0-.09961-1.09587-.99626-1.19551-1.59401"/>
<use data-text="x" xlink:href="#font_1_1" transform="matrix(9.9626,0,0,-9.963397,180.36499,110.19277)" fill="#0000ff"/>
<path transform="matrix(1,0,0,-1.00008,57.789,102.38315)" stroke-width=".3985" stroke-linecap="butt" stroke-miterlimit="10" stroke-linejoin="miter" fill="none" stroke="#0000ff" d="M0-42.5202V90.25142"/>
<path transform="matrix(0,-1.00008,-1,-0,57.789,12.124512)" stroke-width=".31879" stroke-linecap="round" stroke-linejoin="round" fill="none" stroke="#0000ff" d="M-1.19551 1.59401C-1.09587 .99626 0 .09961 .29886 0 0-.09961-1.09587-.99626-1.19551-1.59401"/>
<use data-text="y" xlink:href="#font_1_2" transform="matrix(9.9626,0,0,-9.963397,49.027,6.208458)" fill="#0000ff"/>
<path transform="matrix(1,0,0,-1.00008,57.789,102.38315)" stroke-width=".3985" stroke-linecap="butt" stroke-miterlimit="10" stroke-linejoin="miter" fill="none" stroke="#000000" d="M28.3468 2.26778V-2.26778"/>
<use data-text="1" xlink:href="#font_2_1" transform="matrix(9.9626,0,0,-9.963397,83.645008,114.592128)"/>
<path transform="matrix(1,0,0,-1.00008,57.789,102.38315)" stroke-width=".3985" stroke-linecap="butt" stroke-miterlimit="10" stroke-linejoin="miter" fill="none" stroke="#000000" d="M2.26778 28.3468H-2.26778"/>
<use data-text="1" xlink:href="#font_2_1" transform="matrix(9.9626,0,0,-9.963397,47.020006,77.24414)"/>
<path transform="matrix(1,0,0,-1.00008,57.789,102.38315)" stroke-width=".3985" stroke-linecap="butt" stroke-dasharray="2.98883,2.98883" stroke-miterlimit="10" stroke-linejoin="miter" fill="none" stroke="#000000" d="M-34.01608-34.01608C-34.01608-34.01608-33.53261-33.53261-33.34692-33.34692-33.16125-33.16125-32.86348-32.86348-32.6778-32.6778-32.49213-32.49213-32.19434-32.19434-32.00865-32.00865-31.82298-31.82298-31.5252-31.5252-31.33952-31.33952-31.15385-31.15385-30.85606-30.85606-30.6704-30.6704-30.48471-30.48471-30.18692-30.18692-30.00125-30.00125-29.81557-29.81557-29.51779-29.51779-29.33212-29.33212-29.14644-29.14644-28.84865-28.84865-28.66298-28.66298-28.4773-28.4773-28.17952-28.17952-27.99384-27.99384-27.80817-27.80817-27.51039-27.51039-27.3247-27.3247-27.13904-27.13904-26.84125-26.84125-26.65556-26.65556-26.4699-26.4699-26.17212-26.17212-25.98643-25.98643-25.80077-25.80077-25.50298-25.50298-25.31729-25.31729-25.1316-25.1316-24.83383-24.83383-24.64816-24.64816-24.46248-24.46248-24.1647-24.1647-23.97903-23.97903-23.79335-23.79335-23.49556-23.49556-23.30989-23.30989-23.1242-23.1242-22.82643-22.82643-22.64076-22.64076-22.45508-22.45508-22.1573-22.1573-21.97162-21.97162-21.78595-21.78595-21.48816-21.48816-21.30247-21.30247-21.1168-21.1168-20.81903-20.81903-20.63335-20.63335-20.44768-20.44768-20.14989-20.14989-19.9642-19.9642-19.77853-19.77853-19.48074-19.48074-19.29507-19.29507-19.10939-19.10939-18.81161-18.81161-18.62595-18.62595-18.44026-18.44026-18.14247-18.14247-17.9568-17.9568-17.77112-17.77112-17.47334-17.47334-17.28767-17.28767-17.10199-17.10199-16.8042-16.8042-16.61852-16.61852-16.43285-16.43285-16.13507-16.13507-15.94939-15.94939-15.76372-15.76372-15.46594-15.46594-15.28026-15.28026-15.09459-15.09459-14.7968-14.7968-14.61111-14.61111-14.42545-14.42545-14.12766-14.12766-13.94199-13.94199-13.7563-13.7563-13.45851-13.45851-13.27284-13.27284-13.08716-13.08716-12.78938-12.78938-12.60371-12.60371-12.41803-12.41803-12.12025-12.12025-11.93459-11.93459-11.7489-11.7489-11.45111-11.45111-11.26543-11.26543-11.07976-11.07976-10.78198-10.78198-10.5963-10.5963-10.41063-10.41063-10.11284-10.11284-9.92715-9.92715-9.74149-9.74149-9.44371-9.44371-9.25803-9.25803-9.07236-9.07236-8.77458-8.77458-8.5889-8.5889-8.40321-8.40321-8.10542-8.10542-7.91975-7.91975-7.73407-7.73407-7.4363-7.4363-7.25063-7.25063-7.06494-7.06494-6.76715-6.76715-6.58148-6.58148-6.3958-6.3958-6.09802-6.09802-5.91234-5.91234-5.72667-5.72667-5.4289-5.4289-5.24321-5.24321-5.05754-5.05754-4.75975-4.75975-4.57407-4.57407-4.3884-4.3884-4.09062-4.09062-3.90494-3.90494-3.71927-3.71927-3.42148-3.42148-3.2358-3.2358-3.05011-3.05011-2.75233-2.75233-2.56667-2.56667-2.38098-2.38098-2.0832-2.0832-1.89754-1.89754-1.71185-1.71185-1.41406-1.41406-1.2284-1.2284-1.04271-1.04271-.74493-.74493-.55927-.55927-.37358-.37358-.07582-.07582 .10985 .10985 .29552 .29552 .5933 .5933 .77899 .77899 .96466 .96466 1.26244 1.26244 1.44812 1.44812 1.63379 1.63379 1.93158 1.93158 2.11726 2.11726 2.30293 2.30293 2.60072 2.60072 2.78639 2.78639 2.97208 2.97208 3.26985 3.26985 3.45552 3.45552 3.6412 3.6412 3.939 3.939 4.12466 4.12466 4.31035 4.31035 4.60812 4.60812 4.7938 4.7938 4.97948 4.97948 5.27727 5.27727 5.46295 5.46295 5.64862 5.64862 5.9464 5.9464 6.13208 6.13208 6.31775 6.31775 6.61552 6.61552 6.80121 6.80121 6.98688 6.98688 7.28467 7.28467 7.47035 7.47035 7.65602 7.65602 7.95381 7.95381 8.13948 8.13948 8.32516 8.32516 8.62296 8.62296 8.80862 8.80862 8.99431 8.99431 9.29208 9.29208 9.47775 9.47775 9.66344 9.66344 9.96121 9.96121 10.14688 10.14688 10.33257 10.33257 10.63036 10.63036 10.81604 10.81604 11.00171 11.00171 11.29948 11.29948 11.48517 11.48517 11.67084 11.67084 11.96863 11.96863 12.15431 12.15431 12.33998 12.33998 12.63776 12.63776 12.82344 12.82344 13.00911 13.00911 13.30688 13.30688 13.49257 13.49257 13.67825 13.67825 13.97604 13.97604 14.16171 14.16171 14.3474 14.3474 14.64517 14.64517 14.83084 14.83084 15.01653 15.01653 15.31432 15.31432 15.49998 15.49998 15.68567 15.68567 15.98344 15.98344 16.16911 16.16911 16.3548 16.3548 16.65257 16.65257 16.83826 16.83826 17.02393 17.02393 17.32172 17.32172 17.5074 17.5074 17.69307 17.69307 17.99084 17.99084 18.17653 18.17653 18.3622 18.3622 18.65999 18.65999 18.84567 18.84567 19.03134 19.03134 19.32913 19.32913 19.5148 19.5148 19.70049 19.70049 19.99826 19.99826 20.18393 20.18393 20.36961 20.36961 20.6674 20.6674 20.85307 20.85307 21.03876 21.03876 21.33653 21.33653 21.5222 21.5222 21.70789 21.70789 22.00568 22.00568 22.19136 22.19136 22.37703 22.37703 22.6748 22.6748 22.86049 22.86049 23.04616 23.04616 23.34393 23.34393 23.52962 23.52962 23.71529 23.71529 24.01308 24.01308 24.19876 24.19876 24.38443 24.38443 24.68222 24.68222 24.86789 24.86789 25.05357 25.05357 25.35135 25.35135 25.53702 25.53702 25.7227 25.7227 26.0205 26.0205 26.20616 26.20616 26.39185 26.39185 26.68962 26.68962 26.87529 26.87529 27.06097 27.06097 27.35876 27.35876 27.54445 27.54445 27.73012 27.73012 28.0279 28.0279 28.21358 28.21358 28.39925 28.39925 28.69702 28.69702 28.8827 28.8827 29.06837 29.06837 29.36617 29.36617 29.55185 29.55185 29.73752 29.73752 30.0353 30.0353 30.22098 30.22098 30.40666 30.40666 30.70445 30.70445 30.89012 30.89012 31.0758 31.0758 31.37358 31.37358 31.55925 31.55925 31.74493 31.74493 32.04271 32.04271 32.22838 32.22838 32.41406 32.41406 32.71185 32.71185 32.89754 32.89754 33.0832 33.0832 33.38098 33.38098 33.56667 33.56667 33.75233 33.75233 34.05013 34.05013 34.23581 34.23581 34.42148 34.42148 34.71925 34.71925 34.90494 34.90494 35.0906 35.0906 35.38838 35.38838 35.57407 35.57407 35.75975 35.75975 36.05754 36.05754 36.24321 36.24321 36.4289 36.4289 36.72667 36.72667 36.91234 36.91234 37.09802 37.09802 37.39581 37.39581 37.58148 37.58148 37.76717 37.76717 38.06494 38.06494 38.25061 38.25061 38.4363 38.4363 38.73407 38.73407 38.91975 38.91975 39.10542 39.10542 39.40321 39.40321 39.5889 39.5889 39.77457 39.77457 40.07234 40.07234 40.25803 40.25803 40.4437 40.4437 40.74149 40.74149 40.92717 40.92717 41.11284 41.11284 41.41063 41.41063 41.5963 41.5963 41.78198 41.78198 42.07976 42.07976 42.26543 42.26543 42.45111 42.45111 42.7489 42.7489 42.93457 42.93457 43.12025 43.12025 43.41803 43.41803 43.6037 43.6037 43.78938 43.78938 44.08717 44.08717 44.27286 44.27286 44.45853 44.45853 44.7563 44.7563 44.94199 44.94199 45.12766 45.12766 45.42543 45.42543 45.61111 45.61111 45.79678 45.79678 46.09457 46.09457 46.28026 46.28026 46.46593 46.46593 46.76372 46.76372 46.94939 46.94939 47.13507 47.13507 47.43285 47.43285 47.61852 47.61852 47.8042 47.8042 48.10199 48.10199 48.28766 48.28766 48.47334 48.47334 48.77112 48.77112 48.95679 48.95679 49.14247 49.14247 49.44026 49.44026 49.62595 49.62595 49.81161 49.81161 50.10939 50.10939 50.29507 50.29507 50.48074 50.48074 50.77852 50.77852 50.9642 50.9642 51.14987 51.14987 51.44766 51.44766 51.63335 51.63335 51.81902 51.81902 52.11679 52.11679 52.30247 52.30247 52.48816 52.48816 52.78595 52.78595 52.97162 52.97162 53.1573 53.1573 53.45508 53.45508 53.64075 53.64075 53.82643 53.82643 54.1242 54.1242 54.30988 54.30988 54.49556 54.49556 54.79335 54.79335 54.97902 54.97902 55.1647 55.1647 55.46248 55.46248 55.64816 55.64816 55.83383 55.83383 56.13162 56.13162 56.3173 56.3173 56.50298 56.50298 56.80075 56.80075 56.98643 56.98643 57.1721 57.1721 57.46988 57.46988 57.65556 57.65556 57.84123 57.84123 58.13904 58.13904 58.3247 58.3247 58.51039 58.51039 58.80817 58.80817 58.99384 58.99384 59.17952 59.17952 59.47731 59.47731 59.66298 59.66298 59.84866 59.84866 60.14644 60.14644 60.3321 60.3321 60.51779 60.51779 60.81557 60.81557 61.00125 61.00125 61.18692 61.18692 61.48471 61.48471 61.6704 61.6704 61.85606 61.85606 62.15384 62.15384 62.33952 62.33952 62.52519 62.52519 62.82298 62.82298 63.00867 63.00867 63.19434 63.19434 63.49213 63.49213 63.6778 63.6778 63.86348 63.86348 64.16125 64.16125 64.34692 64.34692 64.53261 64.53261 64.8304 64.8304 65.01607 65.01607 65.20175 65.20175 65.49953 65.49953 65.6852 65.6852 65.87088 65.87088 66.16867 66.16867 66.35435 66.35435 66.54002 66.54002 66.8378 66.8378 67.02348 67.02348 67.20915 67.20915 67.50693 67.50693 67.69261 67.69261 67.87828 67.87828 68.17607 68.17607 68.36176 68.36176 68.54742 68.54742 68.8452 68.8452 69.03088 69.03088 69.21657 69.21657 69.51434 69.51434 69.70001 69.70001 69.8857 69.8857 70.18349 70.18349 70.36916 70.36916 70.55484 70.55484 70.85262 70.85262 71.03828 71.03828 71.22397 71.22397 71.52176 71.52176 71.70743 71.70743 71.89311 71.89311 72.19089 72.19089 72.37657 72.37657 72.56224 72.56224 72.86002 72.86002 73.0457 73.0457 73.23137 73.23137 73.52916 73.52916 73.71484 73.71484 73.90051 73.90051 74.19829 74.19829 74.38397 74.38397 74.56966 74.56966 74.86745 74.86745 75.05312 75.05312 75.2388 75.2388 75.53658 75.53658 75.72224 75.72224 75.90793 75.90793 76.2057 76.2057 76.39137 76.39137 76.57706 76.57706 76.87485 76.87485 77.06052 77.06052 77.2462 77.2462 77.54398 77.54398 77.72966 77.72966 77.91533 77.91533 78.21312 78.21312 78.3988 78.3988 78.58447 78.58447 78.88225 78.88225 79.06793 79.06793 79.2536 79.2536 79.55138 79.55138 79.73706 79.73706 79.92273 79.92273 80.22054 80.22054 80.4062 80.4062 80.59189 80.59189 80.88966 80.88966 81.07533 81.07533 81.26102 81.26102 81.5588 81.5588 81.74448 81.74448 81.93016 81.93016 82.22794 82.22794 82.4136 82.4136 82.59929 82.59929 82.89706 82.89706 83.08275 83.08275 83.26842 83.26842 83.56621 83.56621 83.75189 83.75189 83.93756 83.93756 84.23534 84.23534 84.42102 84.42102 84.60669 84.60669 84.90448 84.90448 85.09016 85.09016 85.27583 85.27583 85.57362 85.57362 85.7593 85.7593 85.94498 85.94498 86.24275 86.24275 86.42842 86.42842 86.6141 86.6141 86.9119 86.9119 87.09756 87.09756 87.28325 87.28325 87.58102 87.58102 87.7667 87.7667 87.95238 87.95238 88.25017 88.25017 88.43585 88.43585 88.62152 88.62152 88.9193 88.9193 89.10498 89.10498 89.29065 89.29065 89.58842 89.58842 89.77411 89.77411 89.95978 89.95978 90.25757 90.25757 90.44325 90.44325 90.62892 90.62892 90.9267 90.9267 91.11238 91.11238 91.29807 91.29807 91.59586 91.59586 91.78152 91.78152 91.96721 91.96721 92.26498 92.26498 92.45065 92.45065 92.63634 92.63634 92.93411 92.93411 93.11978 93.11978 93.30547 93.30547 93.60326 93.60326 93.78893 93.78893 93.97461 93.97461 94.27238 94.27238 94.45807 94.45807 94.64374 94.64374 94.94151 94.94151 95.1272 95.1272 95.31287 95.31287 95.61066 95.61066 95.79634 95.79634 95.98201 95.98201 96.27979 96.27979 96.46547 96.46547 96.65114 96.65114 96.94894 96.94894 97.13461 97.13461 97.3203 97.3203 97.61807 97.61807 97.80374 97.80374 97.98943 97.98943 98.2872 98.2872 98.47287 98.47287 98.65855 98.65855 99.14201 99.14201 99.14201 99.14201"/>
</svg>
